<svg xmlns="http://www.w3.org/2000/svg" xmlns:xlink="http://www.w3.org/1999/xlink" version="1.1" x="0px" y="0px" viewBox="0 0 300 375" style="enable-background:new 0 0 300 300;" xml:space="preserve"><path d="M160.3,200.2l60.8,2.6l11.1,69.5l-63.6-18.5L160.3,200.2z M174.5,212.3l4.4,30.3l36.8,8.3l-5.9-36.5  L174.5,212.3z"/><path d="M78.1,196.3l72.9,3.9c0,0,2.1,14.4,3.1,21.6c0.9,6.5,4.1,29,4.1,29l-84.1-24.3L78.1,196.3z M139.7,231.6  l-2.2-20.1l-47.8-2.8l-0.7,8.6L139.7,231.6z"/><path d="M210.8,137.9l-59.6-1.9l-6.2-43.5L201,76.9L210.8,137.9z M196.9,126.1l-5-31.6l-32.2,8.6l4.1,21.4  L196.9,126.1z"/><path d="M152.5,145.6l59.7,1.6l7.4,46.3l-60-2.7L152.5,145.6z M166.8,156.5l2.9,22l33.9,1.3l-3.1-22L166.8,156.5z"/><path d="M86.8,143.7l56.5,1.8l6.3,44.5l-69.9-3.3L86.8,143.7z M132.1,155.1L98.5,154l-4,22l40.1,2.6L132.1,155.1z"/><path d="M193.5,30l6,37.7l-55.9,15.6l-5.7-40.6L193.5,30z M152.8,69.5l33.3-8.4l-2.7-18l-33.5,7.6L152.8,69.5z"/><path d="M136,95.1l5.8,40.8l-53.5-1.6l4.9-27.8L136,95.1z M103.3,114.3l-0.9,9.1l25.4,1.3l-2.2-16.8L103.3,114.3z"/><path d="M128.9,44.9c0,0,3.9,27.2,5.8,40.9c-13.4,3.7-26.7,7.5-40.3,11.2c0.7-4.2,7.4-45.2,7.4-45.2L128.9,44.9z   M118.4,59.9l-6.9,1.6L109.8,79l10.1-2.6L118.4,59.9z"/><polygon points="169.4,261.6 166.2,269.7 160.8,262.9 "/><polygon points="135.7,31.1 130.3,24.3 127.1,32.3 "/><rect x="160.5" y="257" transform="matrix(0.1445 0.9895 -0.9895 0.1445 396.2841 58.1868)" width="8" height="2.5"/><rect x="158.7" y="244.7" transform="matrix(0.1445 0.9895 -0.9895 0.1445 382.4997 49.3931)" width="8" height="2.5"/><rect x="156.9" y="232.3" transform="matrix(0.1445 0.9895 -0.9895 0.1445 368.7153 40.5995)" width="8" height="2.5"/><rect x="155.1" y="219.9" transform="matrix(0.1445 0.9895 -0.9895 0.1445 354.931 31.8058)" width="8" height="2.5"/><rect x="153.3" y="207.6" transform="matrix(0.1445 0.9895 -0.9895 0.1445 341.1466 23.0121)" width="8" height="2.5"/><rect x="151.5" y="195.2" transform="matrix(0.1445 0.9895 -0.9895 0.1445 327.3623 14.2185)" width="8" height="2.5"/><rect x="149.7" y="182.8" transform="matrix(0.1445 0.9895 -0.9895 0.1445 313.5779 5.4248)" width="8" height="2.5"/><rect x="147.8" y="170.4" transform="matrix(0.1445 0.9895 -0.9895 0.1445 299.7935 -3.3688)" width="8" height="2.5"/><rect x="146" y="158.1" transform="matrix(0.1445 0.9895 -0.9895 0.1445 286.0092 -12.1625)" width="8" height="2.5"/><rect x="144.2" y="145.7" transform="matrix(0.1445 0.9895 -0.9895 0.1445 272.2248 -20.9561)" width="8" height="2.5"/><rect x="142.4" y="133.3" transform="matrix(0.1445 0.9895 -0.9895 0.1445 258.4405 -29.7498)" width="8" height="2.5"/><rect x="140.6" y="121" transform="matrix(0.1445 0.9895 -0.9895 0.1445 244.6561 -38.5434)" width="8" height="2.5"/><rect x="138.8" y="108.6" transform="matrix(0.1445 0.9895 -0.9895 0.1445 230.8717 -47.3371)" width="8" height="2.5"/><rect x="137" y="96.2" transform="matrix(0.1445 0.9895 -0.9895 0.1445 217.0874 -56.1307)" width="8" height="2.5"/><rect x="135.2" y="83.9" transform="matrix(0.1445 0.9895 -0.9895 0.1445 203.303 -64.9244)" width="8" height="2.5"/><rect x="133.4" y="71.5" transform="matrix(0.1445 0.9895 -0.9895 0.1445 189.5187 -73.718)" width="8" height="2.5"/><rect x="131.6" y="59.1" transform="matrix(0.1445 0.9895 -0.9895 0.1445 175.7343 -82.5117)" width="8" height="2.5"/><rect x="129.8" y="46.8" transform="matrix(0.1445 0.9895 -0.9895 0.1445 161.95 -91.3053)" width="8" height="2.5"/><rect x="128" y="34.4" transform="matrix(0.1445 0.9895 -0.9895 0.1445 148.1656 -100.099)" width="8" height="2.5"/><polygon points="65.9,186.3 58.2,190.2 65.5,195 "/><rect x="140.6" y="193.6" transform="matrix(0.9986 5.303601e-002 -5.303601e-002 0.9986 10.536 -7.3937)" width="8" height="2.5"/><rect x="128.1" y="192.9" transform="matrix(0.9986 5.303601e-002 -5.303601e-002 0.9986 10.4833 -6.7326)" width="8" height="2.5"/><rect x="115.6" y="192.2" transform="matrix(0.9986 5.303601e-002 -5.303601e-002 0.9986 10.4306 -6.0715)" width="8" height="2.5"/><rect x="103.1" y="191.6" transform="matrix(0.9986 5.303601e-002 -5.303601e-002 0.9986 10.3778 -5.4104)" width="8" height="2.5"/><rect x="90.6" y="190.9" transform="matrix(0.9986 5.303601e-002 -5.303601e-002 0.9986 10.3251 -4.7493)" width="8" height="2.5"/><rect x="78.2" y="190.3" transform="matrix(0.9986 5.303601e-002 -5.303601e-002 0.9986 10.2724 -4.0882)" width="8" height="2.5"/><rect x="65.7" y="189.6" transform="matrix(0.9986 5.303601e-002 -5.303601e-002 0.9986 10.2197 -3.4272)" width="8" height="2.5"/><rect x="204.5" y="68.7" transform="matrix(0.9619 -0.2735 0.2735 0.9619 -11.1865 59.7014)" width="8" height="2.5"/><polygon points="211.2,64.7 219.6,66.8 213.5,73 "/><rect x="192.5" y="72.1" transform="matrix(0.9619 -0.2735 0.2735 0.9619 -12.5803 56.5431)" width="8" height="2.5"/><rect x="180.5" y="75.6" transform="matrix(0.9619 -0.2735 0.2735 0.9619 -13.974 53.3848)" width="8" height="2.5"/><rect x="168.4" y="79" transform="matrix(0.9619 -0.2735 0.2735 0.9619 -15.3677 50.2265)" width="8" height="2.5"/><rect x="156.4" y="82.4" transform="matrix(0.9619 -0.2735 0.2735 0.9619 -16.7615 47.0682)" width="8" height="2.5"/><rect x="144.4" y="85.8" transform="matrix(0.9619 -0.2735 0.2735 0.9619 -18.1552 43.9099)" width="8" height="2.5"/><rect x="215.7" y="141.4" transform="matrix(0.9996 2.721914e-002 -2.721914e-002 0.9996 3.9634 -5.9274)" width="8" height="2.5"/><polygon points="223.8,138.4 231.2,142.9 223.6,147.1 "/><rect x="203.2" y="141" transform="matrix(0.9996 2.721914e-002 -2.721914e-002 0.9996 3.9495 -5.5874)" width="8" height="2.5"/><rect x="190.7" y="140.7" transform="matrix(0.9996 2.721914e-002 -2.721914e-002 0.9996 3.9356 -5.2474)" width="8" height="2.5"/><rect x="178.2" y="140.3" transform="matrix(0.9996 2.721914e-002 -2.721914e-002 0.9996 3.9217 -4.9075)" width="8" height="2.5"/><rect x="165.7" y="140" transform="matrix(0.9996 2.721914e-002 -2.721914e-002 0.9996 3.9079 -4.5675)" width="8" height="2.5"/><rect x="153.2" y="139.7" transform="matrix(0.9996 2.721914e-002 -2.721914e-002 0.9996 3.894 -4.2275)" width="8" height="2.5"/><rect x="222.3" y="197.2" transform="matrix(0.9989 4.683733e-002 -4.683733e-002 0.9989 9.5414 -10.3838)" width="8" height="2.5"/><polygon points="230.5,194.3 237.8,198.9 230.1,202.9 "/><rect x="209.9" y="196.6" transform="matrix(0.9989 4.683733e-002 -4.683733e-002 0.9989 9.5003 -9.7996)" width="8" height="2.5"/><rect x="197.4" y="196" transform="matrix(0.9989 4.683733e-002 -4.683733e-002 0.9989 9.4592 -9.2155)" width="8" height="2.5"/><rect x="184.9" y="195.4" transform="matrix(0.9989 4.683733e-002 -4.683733e-002 0.9989 9.418 -8.6313)" width="8" height="2.5"/><rect x="172.4" y="194.8" transform="matrix(0.9989 4.683733e-002 -4.683733e-002 0.9989 9.3769 -8.0471)" width="8" height="2.5"/><rect x="159.9" y="194.2" transform="matrix(0.9989 4.683733e-002 -4.683733e-002 0.9989 9.3358 -7.4629)" width="8" height="2.5"/><rect x="71.9" y="137.4" transform="matrix(-0.9996 -2.721914e-002 2.721914e-002 -0.9996 147.9318 279.2512)" width="8" height="2.5"/><polygon points="71.8,142.8 64.4,138.3 72,134.2 "/><rect x="84.4" y="137.7" transform="matrix(-0.9996 -2.721914e-002 2.721914e-002 -0.9996 172.9086 280.2717)" width="8" height="2.5"/><rect x="96.9" y="138" transform="matrix(-0.9996 -2.721914e-002 2.721914e-002 -0.9996 197.8855 281.2921)" width="8" height="2.5"/><rect x="109.4" y="138.4" transform="matrix(-0.9996 -2.721914e-002 2.721914e-002 -0.9996 222.8624 282.3126)" width="8" height="2.5"/><rect x="121.8" y="138.7" transform="matrix(-0.9996 -2.721914e-002 2.721914e-002 -0.9996 247.8392 283.3331)" width="8" height="2.5"/><rect x="134.3" y="139.1" transform="matrix(-0.9996 -2.721914e-002 2.721914e-002 -0.9996 272.816 284.3535)" width="8" height="2.5"/><rect x="79.6" y="104" transform="matrix(-0.9619 0.2735 -0.2735 -0.9619 192.6961 183.586)" width="8" height="2.5"/><polygon points="80.9,110.5 72.5,108.4 78.5,102.2 "/><rect x="91.6" y="100.6" transform="matrix(-0.9619 0.2735 -0.2735 -0.9619 215.349 173.5895)" width="8" height="2.5"/><rect x="103.6" y="97.1" transform="matrix(-0.9619 0.2735 -0.2735 -0.9619 238.0019 163.593)" width="8" height="2.5"/><rect x="115.6" y="93.7" transform="matrix(-0.9619 0.2735 -0.2735 -0.9619 260.6548 153.5965)" width="8" height="2.5"/><rect x="127.6" y="90.3" transform="matrix(-0.9619 0.2735 -0.2735 -0.9619 283.3076 143.6)" width="8" height="2.5"/><text x="0" y="315" fill="#ad0026" font-size="5px" font-weight="bold" font-family="'Helvetica Neue', Helvetica, Arial-Unicode, Arial, Sans-serif">Created by Michaela Gracová</text><text x="0" y="320" fill="#ad0026" font-size="5px" font-weight="bold" font-family="'Helvetica Neue', Helvetica, Arial-Unicode, Arial, Sans-serif">from the Noun Project</text></svg>